<svg width="4133" height="2320" xmlns="http://www.w3.org/2000/svg" xmlns:xlink="http://www.w3.org/1999/xlink" xml:space="preserve" overflow="hidden"><defs><linearGradient x1="1183.97" y1="-522.68" x2="3217.03" y2="2998.68" gradientUnits="userSpaceOnUse" spreadMethod="reflect" id="fill0"><stop offset="0" stop-color="#FFD700"/><stop offset="0.58" stop-color="#FFFFFF" stop-opacity="0"/><stop offset="1" stop-color="#A2D8F0"/></linearGradient><linearGradient x1="1754.79" y1="1265.21" x2="2750.4" y2="1265.21" gradientUnits="userSpaceOnUse" spreadMethod="reflect" id="fill1"><stop offset="0" stop-color="#368FBD"/><stop offset="0.3457" stop-color="#9FD1E0"/><stop offset="1" stop-color="#378BBB"/></linearGradient></defs><g transform="translate(-134 -78)"><rect x="137.5" y="81.5" width="4126" height="2313" stroke="#042433" stroke-width="6.875" stroke-miterlimit="8" fill="url(#fill0)"/><g><g><g><path d="M2691.49 1086.19C2474.26 1006.52 1983.59 1090.39 2036 713.387 2206.29 764.13 2717.91 569.128 2746.42 489.032 2720.42 437.451 2772.43 359.452 2738.46 373.709 2565.68 445.839 2251.14 231.968 2114.01 295.292 2010.85 343.098 1784.81 213.516 1784.81 213.516 1853.58 248.323 1846.03 345.615 1847.72 354 1847.72 354 1714.77 367.002 1490.83 261.742 1622.51 374.129 1684.58 396.354 1681.64 432.421 1638.86 415.644 1417.44 339.743 1180.07 659.289 1602.81 415.644 1726.52 583.388 1726.52 583.388 1753.77 863.938 1767.2 979.258 1997.01 1138.19 2120.72 1224.16 2691.49 1086.19 2691.49 1086.19Z" fill="#378BBB" fill-rule="evenodd" transform="matrix(1 0 0 1.00052 -932.351 -68.6926)"/><path d="M2042.58 1399.27C2068.1 1887.42 1905.42 2333.99 1905.42 2333.99 2288.92 1656.57 2324.48 1463.07 2312.76 1435.37 2304.39 1445.87 2094.87 1437.89 2042.58 1399.27Z" fill="#378BBB" fill-rule="evenodd" transform="matrix(1 0 0 1.00052 -932.351 -68.6926)"/><path d="M1757.35 1399.25C1734.32 1464.32 2406.38 1465.15 2667.01 1399.67 2785.16 1369.87 2770.49 1070.58 2668.68 1082.34 2321.75 1121.38 2164.62 1136.9 1765.32 1089.89 1725.93 1084.87 1813.92 1240.17 1757.35 1399.25Z" fill="url(#fill1)" fill-rule="evenodd" transform="matrix(1 0 0 1.00052 -932.351 -68.6926)"/><text fill="#378BBB" font-family="Arial,Arial_MSFontService,sans-serif" font-weight="400" font-size="614" transform="matrix(1.06825 0 0 1.06881 1247.43 2073)">eliz</text></g></g></g><text font-family="Aptos,Aptos_MSFontService,sans-serif" font-weight="700" font-size="202" transform="matrix(1 0 0 1 1983.34 675)">A fresh retake of the </text><text font-family="Aptos,Aptos_MSFontService,sans-serif" font-weight="700" font-size="202" transform="matrix(1 0 0 1 1983.34 917)">React </text><text font-family="Aptos,Aptos_MSFontService,sans-serif" font-weight="700" font-size="202" transform="matrix(1 0 0 1 2557.97 917)">API </text><text font-family="Aptos,Aptos_MSFontService,sans-serif" font-weight="700" font-size="202" transform="matrix(1 0 0 1 2905.16 917)">in </text><text fill="#4091BE" font-family="Cavolini,Cavolini_MSFontService,sans-serif" font-weight="700" font-size="202" transform="matrix(1 0 0 1 3117.14 917)">Fable</text><text font-family="Cavolini,Cavolini_MSFontService,sans-serif" font-weight="700" font-size="202" transform="matrix(1 0 0 1 3682.61 917)">, </text><text font-family="Aptos,Aptos_MSFontService,sans-serif" font-weight="700" font-size="202" transform="matrix(1 0 0 1 1983.34 1159)">optimized </text><text font-family="Aptos,Aptos_MSFontService,sans-serif" font-weight="700" font-size="202" transform="matrix(1 0 0 1 2938.21 1159)">for </text><text fill="#FFD700" font-family="Cavolini,Cavolini_MSFontService,sans-serif" font-weight="700" font-size="202" transform="matrix(1 0 0 1 1983.34 1401)">happiness</text><text font-family="Cavolini,Cavolini_MSFontService,sans-serif" font-weight="700" font-size="202" transform="matrix(1 0 0 1 3045.52 1401)">.</text></g></svg>